# xmcd
#
# Track frame offsets: 
#        150
#        16662
#        33957
#        53515
#        74927
#        90513
#        105134
#        127788
#        142385
#        165533
#        181359
#        199647
#        225958
#        240369
#        272039
#        290620
#        308348
#        325183
#
# Disc length: 4773 seconds
#
# Revision: 2
# Processed by: cddbd v1.5.2PL0 Copyright (c) Steve Scherf et al.
# Submitted via: ExactAudioCopy v1.3
#
DISCID=e312a312
DTITLE=Various Artist - Akella Presents - vol.35 - Rockin' Blues and Bo
DTITLE=ogie Rock  CD2
DYEAR=2013
DGENRE=Rockin' Blues
TTITLE0=David Shelley and Bluestone - Birth of the Blues
TTITLE1=Too Slim and the Taildraggers - A Girl Like Mine
TTITLE2=Trampled Under Foot - Don't Want No Woman
TTITLE3=Mark Selby - You're Gonna Miss My Love
TTITLE4=Samuel Eddy - Sweetest Revenge
TTITLE5=Bart Walker - Took It Like A Man
TTITLE6=Blue On Black - Black Smoke Blues
TTITLE7=The Groove Junkies - Groove Junkie
TTITLE8=Wayne Sharp and The SharpShooter Band - Wang Dang Doodle
TTITLE9=Doobie Twisters - Rocket Pocket (Thank You, Stevie Ray)
TTITLE10=Midnight Creepers - Breaking Point
TTITLE11=Calvin Russel - Soldier
TTITLE12=Dave Steffen Band - Do What You Gotta Do
TTITLE13=Pat Ramsey - Loan Me A Dime
TTITLE14=The Hamsters - Rocket in My Pocket
TTITLE15=Austin Young and No Difference - Blue As Can Be
TTITLE16=A.L. James and Spare Change - Stop Messin' Round
TTITLE17=Eric Street Band - Reconsider Baby
EXTD=
EXTT0=
EXTT1=
EXTT2=
EXTT3=
EXTT4=
EXTT5=
EXTT6=
EXTT7=
EXTT8=
EXTT9=
EXTT10=
EXTT11=
EXTT12=
EXTT13=
EXTT14=
EXTT15=
EXTT16=
EXTT17=
PLAYORDER=
